<svg width="20" height="20" viewBox="0 0 20 20" fill="none" xmlns="http://www.w3.org/2000/svg">
<path d="M9.99985 19.7188C4.63233 19.7188 0.281206 15.3677 0.281206 10C0.281206 4.63241 4.63234 0.281206 9.99985 0.281206C15.3674 0.281206 19.7188 4.63242 19.7188 10C19.7188 15.3676 15.3674 19.7188 9.99985 19.7188Z" fill="#0C0C4F" stroke="#EC796B" stroke-width="0.562411"/>
<path fill-rule="evenodd" clip-rule="evenodd" d="M5.58895 7.64415L5.8358 6.8815C5.88598 6.72638 6.00839 6.60568 6.16408 6.55809L6.93045 6.32241C7.03652 6.29001 7.03738 6.14035 6.93217 6.10623L6.16924 5.85937C6.01442 5.8092 5.89371 5.68677 5.84584 5.5311L5.61044 4.76472C5.57805 4.65892 5.42839 4.65777 5.39427 4.76329L5.14742 5.52593C5.09724 5.68076 4.97482 5.80146 4.81914 5.84934L4.05277 6.08473C3.9467 6.11741 3.94554 6.26679 4.05105 6.30091L4.81398 6.54776C4.9688 6.59794 5.08951 6.72065 5.13738 6.87634L5.37277 7.64242C5.40517 7.74851 5.55482 7.74965 5.58895 7.64415Z" fill="#FAFAFA"/>
<path fill-rule="evenodd" clip-rule="evenodd" d="M17.702 7.20027C17.3862 6.84698 16.893 6.64805 16.4137 6.56648C15.9305 6.48813 15.4238 6.4954 14.9468 6.58015C13.9816 6.74342 13.1048 7.14307 12.34 7.6361C11.9429 7.87807 11.6042 8.15806 11.2533 8.44319C11.0843 8.58741 10.9301 8.74097 10.7696 8.89234L10.331 9.32878C9.85435 9.82699 9.38457 10.2808 8.93004 10.6569C8.47367 11.0313 8.047 11.3156 7.62652 11.5142C7.2063 11.7138 6.75667 11.8312 6.1706 11.85C5.58969 11.8704 4.9024 11.7656 4.16723 11.5925C3.42812 11.4202 2.65197 11.1747 1.78464 10.9633C2.08727 11.8029 2.54299 12.5449 3.12809 13.2231C3.72006 13.8896 4.45925 14.497 5.40882 14.8965C6.34468 15.3049 7.52076 15.4515 8.62043 15.2303C9.72301 15.0181 10.6906 14.5078 11.4727 13.9178C12.2568 13.3217 12.8911 12.6427 13.4259 11.9367C13.5735 11.7416 13.6516 11.6325 13.7585 11.48L14.0538 11.0426C14.259 10.7721 14.4458 10.464 14.649 10.1959C15.0472 9.63451 15.4397 9.07374 15.896 8.55708C16.1256 8.29504 16.3677 8.04439 16.6535 7.80351C16.7962 7.68594 16.9501 7.57087 17.1208 7.46723C17.2939 7.35543 17.4768 7.26792 17.702 7.20027Z" fill="#EC796B"/>
<path fill-rule="evenodd" clip-rule="evenodd" d="M17.702 7.20014C17.3627 6.34368 16.7316 5.62272 15.8848 5.09072C15.0429 4.56456 13.8738 4.29605 12.7153 4.52494C12.1429 4.63564 11.5884 4.84876 11.1018 5.13256C10.6174 5.41525 10.1833 5.75552 9.80753 6.12057C9.61993 6.30372 9.44966 6.49476 9.28049 6.68689L8.84203 7.24591L8.16483 8.14577C7.3015 9.30357 6.37182 10.6604 4.84615 11.0625C3.34839 11.4572 2.69878 11.1076 1.78464 10.9632C1.95179 11.3948 2.15883 11.8138 2.43952 12.1825C2.71498 12.5587 3.04033 12.912 3.44484 13.2147C3.64926 13.3602 3.86508 13.5037 4.10479 13.6255C4.3434 13.7431 4.60072 13.8467 4.87537 13.9246C5.4217 14.0744 6.03678 14.1268 6.63231 14.0463C7.22812 13.9668 7.79762 13.7779 8.29541 13.5272C8.79688 13.2788 9.23372 12.9763 9.62378 12.657C10.3992 12.013 11.0023 11.3016 11.5117 10.5824C11.768 10.2228 12.0006 9.85644 12.2157 9.48997L12.4689 9.05369C12.5463 8.92616 12.6246 8.79784 12.7042 8.67834C13.0249 8.19821 13.3387 7.81322 13.7199 7.52426C14.0957 7.22783 14.6191 7.00881 15.3185 6.95793C16.0149 6.90644 16.819 7.00155 17.702 7.20014Z" fill="#FAFAFA"/>
<path fill-rule="evenodd" clip-rule="evenodd" d="M13.934 14.3163C13.934 14.9453 14.4443 15.4556 15.0733 15.4556C15.7024 15.4556 16.2119 14.9453 16.2119 14.3163C16.2119 13.6873 15.7024 13.1771 15.0733 13.1771C14.4443 13.1771 13.934 13.6873 13.934 14.3163Z" fill="#EC796B"/>
</svg>
